<svg width="47" height="46" viewBox="0 0 47 46" fill="none" xmlns="http://www.w3.org/2000/svg">
<path d="M23.5 46C10.5 46 0 35.72 0 23C0 10.28 10.5 0 23.5 0C36.5 0 47 10.28 47 23C47 35.72 36.5 46 23.5 46Z" fill="#FDF0E9"/>
<path d="M18.03 23.48H20.69V34.4302C20.69 34.6502 20.87 34.8301 21.08 34.8301H25.6C25.81 34.8301 25.99 34.6502 25.99 34.4302V23.5298H29.05C29.24 23.5298 29.41 23.3802 29.44 23.1802L29.9 19.1499C29.91 19.0399 29.88 18.9298 29.8 18.8398C29.73 18.7598 29.62 18.71 29.51 18.71H25.99V16.1899C25.99 15.4199 26.4 15.04 27.21 15.04C27.32 15.04 29.51 15.04 29.51 15.04C29.73 15.04 29.9 14.8599 29.9 14.6499V10.9399C29.9 10.7299 29.73 10.5498 29.51 10.5498H26.34C26.31 10.5498 26.26 10.5498 26.19 10.5498C25.64 10.5498 23.72 10.6598 22.21 12.0498C20.54 13.5898 20.77 15.4398 20.82 15.7598V18.71H18.03C17.81 18.71 17.64 18.8899 17.64 19.1099V23.0898C17.64 23.2998 17.81 23.48 18.03 23.48Z" fill="#292929"/>
</svg>
