<svg width="47" height="46" viewBox="0 0 47 46" fill="none" xmlns="http://www.w3.org/2000/svg">
<path d="M23.5 46C10.5 46 0 35.72 0 23C0 10.28 10.5 0 23.5 0C36.5 0 47 10.28 47 23C47 35.72 36.5 46 23.5 46Z" fill="#FDF0E9"/>
<path d="M33.15 32.3398V25.4902C33.15 22.1402 32.43 19.5601 28.51 19.5601C26.63 19.5601 25.36 20.5898 24.85 21.5698H24.79V19.8701H21.08V32.3398H24.95V26.1602C24.95 24.5402 25.26 22.9702 27.27 22.9702C29.25 22.9702 29.28 24.82 29.28 26.27V32.3398H33.15Z" fill="#292929"/>
<path d="M14.78 19.8701H18.65V32.3398H14.78V19.8701Z" fill="#292929"/>
<path d="M16.72 13.6602C15.48 13.6602 14.47 14.6699 14.47 15.8999C14.47 17.1399 15.48 18.1699 16.72 18.1699C17.95 18.1699 18.96 17.1399 18.96 15.8999C18.96 14.6699 17.95 13.6602 16.72 13.6602Z" fill="#292929"/>
</svg>
