<svg width="118" height="33" viewBox="0 0 118 33" fill="none" xmlns="http://www.w3.org/2000/svg">
<path d="M100.52 30.6199C102.16 30.7799 103.8 30.9499 105.44 31.1199L109.05 22.21L112.48 31.95C114.24 32.17 116 32.4 117.76 32.64L111.74 15.5599L117.76 0.699951H112.66L112.61 0.769958L109.36 8.79993L106.5 0.699951H101.47L106.67 15.45L100.52 30.6199ZM96.72 30.27V0.699951H91.69V29.8499C93.36 29.9799 95.04 30.12 96.72 30.27ZM58.92 28.6099C60.28 28.6099 61.64 28.6199 62.99 28.6299V17.77H69.04V13.15H62.99V5.32996H69.95V0.699951H57.94V28.6199C58.27 28.6199 58.6 28.6099 58.92 28.6099ZM43.3 28.9C44.98 28.84 46.66 28.7899 48.34 28.7499V5.32996H53.04V0.699951H38.6V5.32996H43.3V28.9ZM4.83002 32.0099V14.4L10.78 31.2999C12.62 31.0999 14.45 30.8999 16.29 30.7199V0.699951H11.46V18.95L5.03003 0.699951H0V32.65H0.0300293C1.63003 32.43 3.23002 32.2199 4.83002 32.0099ZM33.75 5.32996V0.699951H21.74V30.2199C25.73 29.8699 29.74 29.5899 33.74 29.3499V24.7199C31.42 24.8499 29.1 25.0099 26.79 25.1799V17.77H32.83V13.15H26.79V5.32996H33.75ZM79.93 24.4999V0.699951H74.87V28.9099C78.89 29.0599 82.9 29.27 86.89 29.53V24.89C84.57 24.74 82.25 24.6099 79.93 24.4999Z" fill="#9E9E9E"/>
</svg>
