<svg width="1289" height="312" viewBox="0 0 1289 312" fill="none" xmlns="http://www.w3.org/2000/svg">
<path d="M152 45.2402H1224C1235.06 45.2402 1244 54.1802 1244 65.2402V291.24C1244 302.3 1235.06 311.24 1224 311.24H152C140.94 311.24 132 302.3 132 291.24V65.2402C132 54.1802 140.94 45.2402 152 45.2402Z" fill="#8E5BE2"/>
<path d="M201.5 234.24C197.91 234.24 195 231.56 195 228.24C195 224.92 197.91 222.24 201.5 222.24C205.09 222.24 208 224.92 208 228.24C208 231.56 205.09 234.24 201.5 234.24Z" fill="#B7B7B7"/>
<path d="M201.5 268.24C197.91 268.24 195 265.11 195 261.24C195 257.37 197.91 254.24 201.5 254.24C205.09 254.24 208 257.37 208 261.24C208 265.11 205.09 268.24 201.5 268.24Z" fill="#B7B7B7"/>
<path d="M90 202.24C86.68 202.24 84 199.33 84 195.74C84 192.15 86.68 189.24 90 189.24C93.32 189.24 96 192.15 96 195.74C96 199.33 93.32 202.24 90 202.24Z" fill="#EBEBEB"/>
<path d="M90 234.24C86.68 234.24 84 231.56 84 228.24C84 224.92 86.68 222.24 90 222.24C93.32 222.24 96 224.92 96 228.24C96 231.56 93.32 234.24 90 234.24Z" fill="#EBEBEB"/>
<path d="M90 268.24C86.68 268.24 84 265.11 84 261.24C84 257.37 86.68 254.24 90 254.24C93.32 254.24 96 257.37 96 261.24C96 265.11 93.32 268.24 90 268.24Z" fill="#EBEBEB"/>
<path d="M90 300.24C86.68 300.24 84 297.56 84 294.24C84 290.92 86.68 288.24 90 288.24C93.32 288.24 96 290.92 96 294.24C96 297.56 93.32 300.24 90 300.24Z" fill="#EBEBEB"/>
<path d="M173 234.24C169.13 234.24 166 231.56 166 228.24C166 224.92 169.13 222.24 173 222.24C176.87 222.24 180 224.92 180 228.24C180 231.56 176.87 234.24 173 234.24Z" fill="#B7B7B7"/>
<path d="M173 268.24C169.13 268.24 166 265.11 166 261.24C166 257.37 169.13 254.24 173 254.24C176.87 254.24 180 257.37 180 261.24C180 265.11 176.87 268.24 173 268.24Z" fill="#B7B7B7"/>
<path d="M173 300.24C169.13 300.24 166 297.56 166 294.24C166 290.92 169.13 288.24 173 288.24C176.87 288.24 180 290.92 180 294.24C180 297.56 176.87 300.24 173 300.24Z" fill="#B7B7B7"/>
<path d="M61.5 202.24C57.91 202.24 55 199.33 55 195.74C55 192.15 57.91 189.24 61.5 189.24C65.09 189.24 68 192.15 68 195.74C68 199.33 65.09 202.24 61.5 202.24Z" fill="#EBEBEB"/>
<path d="M61.5 234.24C57.91 234.24 55 231.56 55 228.24C55 224.92 57.91 222.24 61.5 222.24C65.09 222.24 68 224.92 68 228.24C68 231.56 65.09 234.24 61.5 234.24Z" fill="#EBEBEB"/>
<path d="M61.5 268.24C57.91 268.24 55 265.11 55 261.24C55 257.37 57.91 254.24 61.5 254.24C65.09 254.24 68 257.37 68 261.24C68 265.11 65.09 268.24 61.5 268.24Z" fill="#EBEBEB"/>
<path d="M61.5 300.24C57.91 300.24 55 297.56 55 294.24C55 290.92 57.91 288.24 61.5 288.24C65.09 288.24 68 290.92 68 294.24C68 297.56 65.09 300.24 61.5 300.24Z" fill="#EBEBEB"/>
<path d="M145 202.24C141.68 202.24 139 199.33 139 195.74C139 192.15 141.68 189.24 145 189.24C148.32 189.24 151 192.15 151 195.74C151 199.33 148.32 202.24 145 202.24Z" fill="#B7B7B7"/>
<path d="M145 234.24C141.68 234.24 139 231.56 139 228.24C139 224.92 141.68 222.24 145 222.24C148.32 222.24 151 224.92 151 228.24C151 231.56 148.32 234.24 145 234.24Z" fill="#B7B7B7"/>
<path d="M145 268.24C141.68 268.24 139 265.11 139 261.24C139 257.37 141.68 254.24 145 254.24C148.32 254.24 151 257.37 151 261.24C151 265.11 148.32 268.24 145 268.24Z" fill="#B7B7B7"/>
<path d="M145 300.24C141.68 300.24 139 297.56 139 294.24C139 290.92 141.68 288.24 145 288.24C148.32 288.24 151 290.92 151 294.24C151 297.56 148.32 300.24 145 300.24Z" fill="#B7B7B7"/>
<path d="M33 234.24C29.68 234.24 27 231.56 27 228.24C27 224.92 29.68 222.24 33 222.24C36.32 222.24 39 224.92 39 228.24C39 231.56 36.32 234.24 33 234.24Z" fill="#EBEBEB"/>
<path d="M33 268.24C29.68 268.24 27 265.11 27 261.24C27 257.37 29.68 254.24 33 254.24C36.32 254.24 39 257.37 39 261.24C39 265.11 36.32 268.24 33 268.24Z" fill="#EBEBEB"/>
<path d="M33 300.24C29.68 300.24 27 297.56 27 294.24C27 290.92 29.68 288.24 33 288.24C36.32 288.24 39 290.92 39 294.24C39 297.56 36.32 300.24 33 300.24Z" fill="#EBEBEB"/>
<path d="M117 202.24C113.68 202.24 111 199.33 111 195.74C111 192.15 113.68 189.24 117 189.24C120.32 189.24 123 192.15 123 195.74C123 199.33 120.32 202.24 117 202.24Z" fill="#EBEBEB"/>
<path d="M117 234.24C113.68 234.24 111 231.56 111 228.24C111 224.92 113.68 222.24 117 222.24C120.32 222.24 123 224.92 123 228.24C123 231.56 120.32 234.24 117 234.24Z" fill="#EBEBEB"/>
<path d="M117 268.24C113.68 268.24 111 265.11 111 261.24C111 257.37 113.68 254.24 117 254.24C120.32 254.24 123 257.37 123 261.24C123 265.11 120.32 268.24 117 268.24Z" fill="#EBEBEB"/>
<path d="M117 300.24C113.68 300.24 111 297.56 111 294.24C111 290.92 113.68 288.24 117 288.24C120.32 288.24 123 290.92 123 294.24C123 297.56 120.32 300.24 117 300.24Z" fill="#EBEBEB"/>
<path d="M6 234.24C2.68 234.24 0 231.56 0 228.24C0 224.92 2.68 222.24 6 222.24C9.32 222.24 12 224.92 12 228.24C12 231.56 9.32 234.24 6 234.24Z" fill="#EBEBEB"/>
<path d="M6 268.24C2.68 268.24 0 265.11 0 261.24C0 257.37 2.68 254.24 6 254.24C9.32 254.24 12 257.37 12 261.24C12 265.11 9.32 268.24 6 268.24Z" fill="#EBEBEB"/>
<path d="M1080.52 0L1288.64 25.5601L1263.48 230.48C1263.48 230.48 1097.38 206.83 1080.52 0Z" fill="#FEDA53"/>
</svg>
