<svg width="47" height="46" viewBox="0 0 47 46" fill="none" xmlns="http://www.w3.org/2000/svg">
<path d="M23.5 46C10.5 46 0 35.72 0 23C0 10.28 10.5 0 23.5 0C36.5 0 47 10.28 47 23C47 35.72 36.5 46 23.5 46Z" fill="#FDF0E9"/>
<path d="M33.19 17.1201C32.76 17.3101 32.3 17.4701 31.84 17.5801C32.35 17.0901 32.74 16.4798 32.95 15.7998C33.02 15.6098 32.8 15.44 32.63 15.54C31.98 15.93 31.28 16.2099 30.56 16.3999C30.51 16.4099 30.47 16.4102 30.43 16.4102C30.3 16.4102 30.17 16.3698 30.06 16.2798C29.29 15.5898 28.29 15.2202 27.26 15.2202C26.81 15.2202 26.36 15.2899 25.92 15.4199C24.54 15.8499 23.48 16.9799 23.15 18.3799C23.03 18.9099 22.99 19.4299 23.05 19.9399C23.06 19.9999 23.03 20.0401 23.01 20.0601C22.98 20.1001 22.94 20.1201 22.9 20.1201C22.89 20.1201 22.89 20.1099 22.88 20.1099C19.87 19.8399 17.16 18.3898 15.24 16.0298C15.15 15.9098 14.96 15.9301 14.88 16.0601C14.51 16.7101 14.31 17.4399 14.31 18.1899C14.31 19.3399 14.77 20.42 15.57 21.21C15.23 21.13 14.91 21.0098 14.6 20.8398C14.46 20.7598 14.28 20.8598 14.27 21.0298C14.25 22.7398 15.25 24.2599 16.75 24.9399C16.72 24.9399 16.69 24.9399 16.66 24.9399C16.42 24.9399 16.18 24.9201 15.94 24.8701C15.78 24.8401 15.64 25.0002 15.69 25.1602C16.18 26.6702 17.48 27.7898 19.05 28.0498C17.75 28.9198 16.24 29.3799 14.67 29.3799H14.18C14.03 29.3799 13.9 29.4701 13.86 29.6201C13.82 29.7701 13.89 29.9202 14.02 29.9902C15.79 31.0202 17.81 31.5698 19.87 31.5698C21.66 31.5698 23.34 31.2098 24.86 30.5098C26.25 29.8598 27.48 28.94 28.51 27.77C29.48 26.68 30.23 25.42 30.75 24.02C31.25 22.69 31.51 21.2699 31.51 19.9199V19.8599C31.51 19.6399 31.61 19.43 31.78 19.29C32.43 18.77 33 18.1402 33.47 17.4502C33.59 17.2602 33.4 17.0301 33.19 17.1201Z" fill="#292929"/>
</svg>
