<svg width="42" height="37" viewBox="0 0 42 37" fill="none" xmlns="http://www.w3.org/2000/svg">
<path d="M0.0499843 26.5901C0.0499843 32.1001 4.52999 36.5701 10.04 36.5701C15.56 36.5701 20.03 32.1001 20.03 26.5901C20.03 21.0701 15.56 16.6001 10.04 16.6001C8.90999 16.6001 7.81999 16.7999 6.80999 17.1499C9.04999 4.25989 19.11 -4.05999 9.78999 2.78001C-0.540014 10.37 0.0399843 26.2801 0.0499843 26.5701C0.0499843 26.5801 0.0499843 26.5801 0.0499843 26.5901Z" fill="#FEDA53"/>
<path d="M22.03 26.5901C22.03 32.1001 26.5 36.5701 32.01 36.5701C37.53 36.5701 42 32.1001 42 26.5901C42 21.0701 37.53 16.6001 32.01 16.6001C30.88 16.6001 29.79 16.7999 28.78 17.1499C31.03 4.25989 41.08 -4.05999 31.76 2.78001C21.43 10.37 22.01 26.2801 22.03 26.5701C22.03 26.5801 22.03 26.5801 22.03 26.5901Z" fill="#FEDA53"/>
</svg>
