<svg width="81" height="49" viewBox="0 0 81 49" fill="none" xmlns="http://www.w3.org/2000/svg">
<path fill-rule="evenodd" clip-rule="evenodd" d="M0 0.0300293H40.74V40.76H0V0.0300293ZM3.31 20.41C3.31 31.14 12.1 38.61 21.44 38.62C27.33 38.64 33.64 35.77 37.32 29.43L27.2 23.63C25.95 25.87 23.48 27 21.45 26.96C18.07 26.9 14.97 24.17 14.97 20.39C14.97 16.73 18.06 13.85 21.64 13.88C23.6 13.9 25.71 14.81 27.2 17.19L37.31 11.4H37.32C33.71 5.09002 27.53 2.24001 21.48 2.20001C12.13 2.14001 3.31 9.73997 3.31 20.41Z" fill="#9E9E9E"/>
<path d="M55.3 23.3199L66.9399 37.8599H78.5699V2.94995H66.9399V17.5099L55.3 2.94995H43.6599V37.8599H55.3V23.3199Z" fill="#9E9E9E"/>
<path d="M3.81001 45.17C4.23001 45.11 4.60999 45.35 4.84999 45.67L6.18001 44.9099C5.84001 44.3399 5.29999 43.8999 4.65999 43.7199C3.15999 43.2999 1.67002 44.19 1.38002 45.79C1.16002 47.63 2.52 48.84 4.11 48.8C4.96 48.72 5.74001 48.23 6.18001 47.5L4.84004 46.7199C4.60004 47.0899 4.23003 47.24 3.89003 47.23C3.28003 47.2 2.78002 46.62 2.94002 45.92C3.05002 45.52 3.41001 45.21 3.81001 45.17Z" fill="#9E9E9E"/>
<path fill-rule="evenodd" clip-rule="evenodd" d="M27.49 44.99C28.16 46.15 27.77 47.64 26.61 48.31C26.23 48.53 25.81 48.64 25.4 48.64C24.56 48.64 23.74 48.2 23.29 47.43C22.96 46.86 22.88 46.21 23.04 45.58C23.21 44.95 23.61 44.4299 24.17 44.0999C24.73 43.7799 25.39 43.69 26.02 43.86C26.64 44.02 27.16 44.42 27.49 44.98C27.49 44.98 27.49 44.98 27.49 44.99ZM26.35 45.6599V45.65C26.2 45.4 25.96 45.22 25.67 45.14C25.58 45.11 25.48 45.0999 25.39 45.0999C25.2 45.0999 25.01 45.15 24.84 45.25C24.31 45.56 24.13 46.23 24.44 46.76C24.74 47.28 25.42 47.4599 25.94 47.1599C26.47 46.8599 26.65 46.1799 26.35 45.6599Z" fill="#9E9E9E"/>
<path fill-rule="evenodd" clip-rule="evenodd" d="M69.1099 44.9899C69.7799 46.1499 69.3899 47.6399 68.2299 48.3099C67.8399 48.5299 67.43 48.6299 67.01 48.6299C66.17 48.6299 65.36 48.1999 64.91 47.4199C64.23 46.2699 64.63 44.7799 65.79 44.0999C66.95 43.4299 68.4299 43.8299 69.1099 44.9799C69.1099 44.9799 69.1099 44.9799 69.1099 44.9899ZM67.9699 45.6599C67.9599 45.6599 67.9599 45.6499 67.9599 45.6499C67.7599 45.2999 67.39 45.0999 67.01 45.0999C66.82 45.0999 66.6299 45.1499 66.4599 45.2499C65.9299 45.5599 65.75 46.2299 66.05 46.7599C66.36 47.2899 67.04 47.4699 67.56 47.1599C67.82 47.0099 67.9999 46.7699 68.0699 46.4899C68.1499 46.2099 68.1099 45.9099 67.9699 45.6599Z" fill="#9E9E9E"/>
<path fill-rule="evenodd" clip-rule="evenodd" d="M10.3301 43.72L11.8801 48.69H10.1401L9.89008 47.86H8.29004L8.04004 48.69H6.29004L7.85004 43.72H10.3301ZM9.53009 46.63L9.09009 45.09L8.64008 46.63H9.53009Z" fill="#9E9E9E"/>
<path fill-rule="evenodd" clip-rule="evenodd" d="M16.18 47.06L17.14 48.69H15.31L14.57 47.24H14.03V48.69H12.39V43.72H15.47C16.34 43.74 17.15 44.52 17.15 45.41C17.17 46 16.92 46.59 16.18 47.06ZM15.51 45.55C15.5 45.38 15.34 45.17 15.13 45.17H14.03V46H15.13C15.32 46 15.51 45.81 15.51 45.55Z" fill="#9E9E9E"/>
<path d="M17.6 45.17H19.16V48.69H21.03V45.17H22.58V43.72H17.6V45.17Z" fill="#9E9E9E"/>
<path d="M37.44 45.79L35.75 43.72H34.11V48.69H35.75V46.62L37.44 48.69H39.08V43.72H37.44V45.79Z" fill="#9E9E9E"/>
<path d="M45.77 45.79L44.09 43.72H42.45V48.69H44.09V46.62L45.77 48.69H47.42V43.72H45.77V45.79Z" fill="#9E9E9E"/>
<path d="M48.13 48.69H52.48V47.36H49.78V46.84H52.05V45.68H49.78V45.17H52.48V43.72H48.13V48.69Z" fill="#9E9E9E"/>
<path d="M53.03 45.17H54.59V48.69H56.45V45.17H58.01V43.72H53.03V45.17Z" fill="#9E9E9E"/>
<path d="M62.1801 45.89L61.34 43.9L60.52 45.9C60.52 45.89 60.1 43.72 60.1 43.72H58.4301C58.4501 43.83 59.39 48.69 59.39 48.69H60.75L61.34 47.35L61.9301 48.69H63.3101L64.26 43.72H62.6L62.1801 45.89Z" fill="#9E9E9E"/>
<path fill-rule="evenodd" clip-rule="evenodd" d="M73.88 47.06L74.84 48.69H73.01L72.27 47.24H71.73V48.69H70.08V43.72H73.16C74.04 43.74 74.84 44.52 74.84 45.41C74.87 46 74.62 46.59 73.88 47.06ZM73.2 45.55C73.19 45.38 73.04 45.17 72.83 45.17H71.73V46H72.8199C73.0199 46 73.21 45.81 73.2 45.55Z" fill="#9E9E9E"/>
<path d="M80.4 43.72H78.28L77.04 45.33V43.72H75.37V48.69H77.04V46.84L78.28 48.69H80.4L78.48 46.09L80.4 43.72Z" fill="#9E9E9E"/>
<path fill-rule="evenodd" clip-rule="evenodd" d="M33.11 44.9899C33.79 46.1499 33.39 47.6399 32.23 48.3099C31.85 48.5299 31.43 48.6299 31.02 48.6299C30.18 48.6299 29.3599 48.1999 28.9099 47.4199C28.2399 46.2699 28.64 44.7799 29.79 44.0999C30.95 43.4299 32.43 43.8299 33.11 44.9799C33.11 44.9799 33.11 44.9799 33.11 44.9899ZM31.9699 45.6599V45.6499C31.8199 45.3999 31.58 45.2199 31.3 45.1399C31.2 45.1099 31.11 45.0999 31.01 45.0999C30.82 45.0999 30.63 45.1499 30.46 45.2499C29.93 45.5599 29.75 46.2299 30.06 46.7599C30.36 47.2799 31.04 47.4599 31.57 47.1599C32.09 46.8599 32.2699 46.1799 31.9699 45.6599Z" fill="#9E9E9E"/>
</svg>
