<svg width="191" height="38" viewBox="0 0 191 38" fill="none" xmlns="http://www.w3.org/2000/svg">
<path d="M22.0601 7.56L11.03 14.6L22.0601 21.64L11.03 28.68L0 21.59L11.03 14.55L0 7.56L11.03 0.52002L22.0601 7.56ZM10.98 30.9L22.01 23.86L33.04 30.9L22.01 37.94L10.98 30.9ZM22.0601 21.59L33.09 14.55L22.0601 7.56L33.04 0.52002L44.0699 7.56L33.04 14.6L44.0699 21.64L33.04 28.68L22.0601 21.59Z" fill="#9E9E9E"/>
<path fill-rule="evenodd" clip-rule="evenodd" d="M52.6801 7.55994H61.6C67.31 7.55994 71.98 10.86 71.98 18.34V19.9199C71.98 27.4999 67.6 30.9 61.79 30.9H52.6801V7.55994ZM57.66 11.7999V26.6199H61.45C64.7 26.6199 66.86 24.4999 66.86 19.8199V18.59C66.86 13.91 64.6 11.7999 61.3 11.7999H57.66ZM74.59 11.9399H74.64V11.9899H74.59V11.9399ZM78.58 11.9899L79.22 16.3699C79.96 13.3699 81.9301 11.7999 85.4301 11.7999H86.66V16.8199H84.59C80.55 16.8199 79.5699 18.2499 79.5699 22.2299V30.9H74.64V11.9899H78.58ZM87.6899 21.89V21.3499C87.6899 14.9999 91.73 11.5499 97.24 11.5499C102.86 11.5499 106.79 14.9999 106.79 21.3499V21.89C106.79 28.09 103 31.4399 97.24 31.4399C91.14 31.3899 87.6899 28.09 87.6899 21.89ZM101.77 21.7899V21.2999C101.77 17.7999 99.9999 15.6899 97.1899 15.6899C94.4399 15.6899 92.61 17.6099 92.61 21.2999V21.7899C92.61 25.1899 94.3899 27.1099 97.1899 27.1099C99.9999 27.1099 101.77 25.2399 101.77 21.7899ZM113.49 11.9899L113.98 15.59C114.97 13.17 117.09 11.5499 120.19 11.5499C125.01 11.5499 128.16 15 128.16 21.4V21.9399C128.16 28.1399 124.67 31.4399 120.19 31.4399C117.18 31.4399 115.17 30.11 114.13 27.95V37.4999H109.31L109.4 11.9899H113.49ZM123.19 21.7899V21.4C123.19 17.66 121.27 15.78 118.66 15.78C115.9 15.78 114.08 17.9 114.08 21.4V21.7399C114.08 25.0899 115.85 27.21 118.61 27.21C121.42 27.16 123.19 25.3399 123.19 21.7899ZM135.45 27.45L135.06 30.9H130.82V5.68994H135.65V15.39C136.68 12.93 138.8 11.5999 141.8 11.5999C146.33 11.6499 149.68 14.7499 149.68 21.0499V21.64C149.68 27.9 146.53 31.4899 141.7 31.4899C138.5 31.3899 136.44 29.92 135.45 27.45ZM144.61 21.59V21.0999C144.61 17.6599 142.74 15.6899 140.08 15.6899C137.37 15.6899 135.5 17.85 135.5 21.15V21.5399C135.5 25.0399 137.32 27.1099 140.03 27.1099C142.89 27.1599 144.61 25.34 144.61 21.59ZM151.75 21.89V21.3499C151.75 14.9999 155.79 11.5499 161.3 11.5499C166.91 11.5499 170.85 14.9999 170.85 21.3499V21.89C170.85 28.09 166.96 31.4399 161.3 31.4399C155.19 31.3899 151.75 28.09 151.75 21.89ZM165.88 21.7899V21.2999C165.88 17.7999 164.11 15.6899 161.3 15.6899C158.54 15.6899 156.72 17.6099 156.72 21.2999V21.7899C156.72 25.1899 158.49 27.1099 161.3 27.1099C164.11 27.1099 165.88 25.2399 165.88 21.7899ZM177.3 21.0999L170.66 11.9899H176.37L180.16 17.7L184.05 11.9899H189.66L182.92 20.9999L190.01 30.8499H184.44L180.11 24.5999L175.87 30.8499H170.11L177.3 21.0999Z" fill="#9E9E9E"/>
</svg>
