<svg width="43" height="43" viewBox="0 0 43 43" fill="none" xmlns="http://www.w3.org/2000/svg">
<path d="M34.9375 43H8.0625C3.60931 43 0 39.3907 0 34.9375V8.0625C0 3.60931 3.60931 0 8.0625 0H34.9375C39.3907 0 43 3.60931 43 8.0625V34.9375C43 39.3907 39.3907 43 34.9375 43Z" fill="white"/>
<path d="M11.735 16.125H15.1387C15.6842 16.125 16.125 15.6843 16.125 15.14V11.735C16.125 11.1907 15.6843 10.75 15.14 10.75H11.735C11.1907 10.75 10.75 11.1907 10.75 11.735V15.1387C10.75 15.6842 11.1907 16.125 11.735 16.125Z" fill="#1700FF"/>
<path d="M11.735 24.1875H15.1387C15.6842 24.1875 16.125 23.7468 16.125 23.2025V19.7988C16.125 19.2533 15.6843 18.8125 15.14 18.8125H11.735C11.1907 18.8125 10.75 19.2532 10.75 19.7975V23.2012C10.75 23.7468 11.1907 24.1875 11.735 24.1875Z" fill="#1700FF"/>
<path d="M11.735 32.25H15.1387C15.6842 32.25 16.125 31.8093 16.125 31.265V27.8613C16.125 27.3157 15.6843 26.875 15.14 26.875H11.735C11.1907 26.875 10.75 27.3157 10.75 27.86V31.2637C10.75 31.8093 11.1907 32.25 11.735 32.25Z" fill="#1700FF"/>
<path d="M19.7975 16.125H23.2012C23.7468 16.125 24.1875 15.6843 24.1875 15.14V11.735C24.1875 11.1907 23.7468 10.75 23.2025 10.75H19.7988C19.2533 10.75 18.8125 11.1907 18.8125 11.735V15.1387C18.8125 15.6842 19.2532 16.125 19.7975 16.125Z" fill="#1700FF"/>
<path d="M18.8125 23.2025C18.8125 23.7468 19.2532 24.1875 19.7975 24.1875H23.2012C23.7468 24.1875 24.1875 23.7468 24.1875 23.2025V19.7988C24.1875 19.2533 23.7468 18.8125 23.2025 18.8125H19.7988C19.2533 18.8125 18.8125 19.2532 18.8125 19.7975V23.2025Z" fill="#1700FF"/>
<path d="M18.8125 31.265C18.8125 31.8093 19.2532 32.25 19.7975 32.25H23.2012C23.7468 32.25 24.1875 31.8093 24.1875 31.265V27.8613C24.1875 27.3157 23.7468 26.875 23.2025 26.875H19.7988C19.2533 26.875 18.8125 27.3157 18.8125 27.86V31.265Z" fill="#1700FF"/>
<path d="M31.265 10.75H27.8613C27.3157 10.75 26.875 11.1907 26.875 11.735V15.1387C26.875 15.6842 27.3157 16.125 27.86 16.125H31.2637C31.8093 16.125 32.25 15.6843 32.25 15.14V11.735C32.25 11.1907 31.8093 10.75 31.265 10.75Z" fill="#1700FF"/>
<path d="M31.265 18.8125H27.8613C27.3157 18.8125 26.875 19.2532 26.875 19.7975V23.2012C26.875 23.7468 27.3157 24.1875 27.86 24.1875H31.2637C31.8093 24.1875 32.25 23.7468 32.25 23.2025V19.7988C32.25 19.2533 31.8093 18.8125 31.265 18.8125Z" fill="#1700FF"/>
<path d="M31.265 26.875H27.8613C27.3157 26.875 26.875 27.3157 26.875 27.86V31.2637C26.875 31.8093 27.3157 32.25 27.86 32.25H31.2637C31.8093 32.25 32.25 31.8093 32.25 31.265V27.8613C32.25 27.3157 31.8093 26.875 31.265 26.875Z" fill="#1700FF"/>
</svg>
