<svg width="130" height="39" viewBox="0 0 130 39" fill="none" xmlns="http://www.w3.org/2000/svg">
<path fill-rule="evenodd" clip-rule="evenodd" d="M45.8401 15.5C45.8401 11.66 48.6401 8.98001 53.7301 8.98001C56.8301 8.98001 59.3701 9.97004 60.7401 10.95C60.9401 11.08 61.2901 11.42 61.0801 12.05C60.8101 12.72 60.3201 13.73 59.9601 14.39C59.7601 14.77 59.2301 14.7201 58.9601 14.5901C57.9801 14.0901 56.3701 13.2501 54.8901 13.0901C54.5201 13.0501 54.1401 13.04 53.7701 13.05C52.4701 13.07 51.3801 13.5301 51.0001 14.5201C50.9201 14.7101 50.8801 14.9 50.8801 15.11C50.8401 16.41 52.6601 16.8901 54.8601 17.2701C58.9601 17.9701 62.0601 19.17 62.0601 23.39C62.0601 26.97 59.2101 30.2 53.6401 30.1C49.9601 30.03 47.3501 28.79 45.9601 27.58C45.9101 27.54 45.3801 27 45.6601 26.35C45.9901 25.51 46.54 24.55 46.97 24.04C47.21 23.71 47.8401 23.66 48.1701 23.86C49.3301 24.58 51.2201 25.72 53.4101 25.8C53.5801 25.81 53.7501 25.81 53.9201 25.8C55.8901 25.76 57.0701 25.01 57.0501 23.75C57.0301 22.65 55.4701 22.0001 52.9901 21.5301C49.0301 20.7901 45.8401 19.48 45.8401 15.5ZM72.5201 12.18C73.8201 11.01 76.4101 9.19001 80.5401 9.29001C85.9801 9.40001 88.8601 11.95 89.1201 18.06C89.2301 20.57 89.0501 27.6001 89.0101 29.3401C89.0001 29.6001 88.9201 29.7701 88.5801 29.7801C87.6801 29.8101 85.6101 29.8 84.66 29.79C84.18 29.76 84.1201 29.5201 84.1201 29.2701C84.1101 29.1101 84.1001 28.63 84.0901 28.23C84.0801 28.02 83.8901 28.03 83.8401 28.08C82.5601 29.45 80.4701 30.1 78.2501 30.1C74.8701 30.1 71.5001 28.12 71.5101 24.18C71.5201 20.15 74.3801 18.16 77.5201 17.69C79.5301 17.39 81.8001 17.6501 83.5101 18.3401C83.6201 18.3801 83.8501 18.32 83.8501 18.16C83.8601 17.65 83.8301 16.67 83.7301 16.2C83.4801 15.02 82.4901 14.07 80.4201 13.81C79.9901 13.76 79.5601 13.7401 79.1301 13.7801C77.4901 13.9101 75.5001 15.19 74.6801 15.67C74.4901 15.79 74.1901 15.7 74.0901 15.58C73.6101 14.96 72.4101 13.15 72.3101 12.86C72.2201 12.57 72.3501 12.33 72.5201 12.18ZM81.8101 20.97C79.0201 21 76.4601 21.77 76.3801 23.95C76.3801 25.68 77.7901 26.53 79.7601 26.42C81.6501 26.24 83.0901 25.42 83.7301 24.33C83.9601 23.92 84.0001 22.42 83.9801 21.7701C83.9801 21.6301 83.7101 21.37 83.5901 21.32C82.9901 21.07 82.5601 21 81.8101 20.97ZM90.9201 19.68C90.8901 14.06 94.8101 9.31005 101.17 9.27005C105.14 9.25005 108.02 11.0501 108.53 11.9001C108.64 12.1001 108.58 12.2601 108.51 12.4601C108.18 13.1701 107.33 14.54 106.72 15.32C106.46 15.65 106.18 15.3701 105.86 15.1501C104.96 14.5501 103.24 13.82 101.56 13.82C98.5001 13.82 96.2201 15.9101 96.2401 19.7801C96.2701 23.4801 98.4501 25.5201 101.57 25.5901C103.2 25.6301 104.78 24.69 105.62 23.93C105.89 23.69 106.17 23.81 106.47 24.05C107.07 24.66 107.93 25.6 108.4 26.25C108.72 26.62 108.48 26.97 108.37 27.11C107.08 28.74 104.59 30.12 101.29 30.14C94.3801 30.19 90.9501 25.33 90.9201 19.68ZM123.9 29.88C123.74 29.89 123.53 29.88 123.34 29.62C123.26 29.51 122.14 27.92 120.93 26.13C119.62 24.18 118.2 22 117.7 21.33C117.6 21.19 117.44 21.1901 117.34 21.2801C116.92 21.6901 115.94 22.74 115.58 23.12C115.5 23.21 115.45 23.48 115.45 23.48L115.38 29.48C115.38 29.48 115.31 29.83 114.82 29.83C113.81 29.84 111.66 29.85 110.79 29.8C110.57 29.78 110.4 29.61 110.39 29.38C110.27 26.26 109.99 3.90002 110.19 0.860017C110.21 0.650017 110.44 0.400027 110.69 0.370027C111.56 0.320027 113.78 0.330036 114.66 0.380036C114.83 0.390036 115.13 0.580049 115.14 0.830049C115.23 2.74005 115.29 14.3101 115.3 17.0201C115.3 17.3801 115.45 17.43 115.7 17.18C117.09 15.78 121.77 11.09 123.3 9.66C123.63 9.32 124.08 9.29003 124.46 9.37003C125.36 9.56003 126.93 9.92005 127.9 10.2101C128.41 10.3601 128.76 10.6401 128.17 11.2801C126.64 12.9301 122.56 16.92 121.59 17.88C121.45 18.01 121.45 18.18 121.57 18.35C122.08 19.05 123.67 20.8801 125.17 22.9601C126.8 25.2201 128.36 27.75 128.95 28.64C129.1 28.86 129.01 29.08 128.74 29.14C127.68 29.38 124.22 29.86 123.9 29.88ZM65.0401 29.86C64.6601 29.85 64.4701 29.67 64.4201 29.3C64.3801 28.93 64.2501 9.34001 64.4501 0.850007C64.4501 0.690007 64.5401 0.580061 64.7001 0.530061C65.5001 0.330061 68.0001 0.300014 68.8701 0.420014C69.0701 0.440014 69.1901 0.550049 69.2001 0.830049C69.3401 4.13005 69.4301 25 69.2101 29.38C69.2001 29.62 69.0201 29.88 68.6801 29.87C67.6601 29.87 65.3501 29.87 65.0401 29.86Z" fill="#9E9E9E"/>
<path d="M3.25006 21.1501C1.82006 21.1601 0.620039 20.3101 0.170039 18.9901C0.160039 18.9401 0.140061 18.8901 0.130061 18.8301C-0.359939 17.1401 0.580076 15.3701 2.27008 14.8001L29.2601 5.75009C29.5801 5.66009 29.9201 5.61007 30.2501 5.61007C31.7101 5.60007 32.9501 6.47009 33.4001 7.82009L33.4501 7.9501C33.9501 9.7101 32.7001 11.2901 31.1901 11.7901C31.1901 11.7901 30.9201 11.8901 4.34008 20.9601C3.99008 21.0801 3.62006 21.1401 3.25006 21.1501Z" fill="#9E9E9E"/>
<path d="M7.75005 34.4201C6.31005 34.4301 5.10003 33.6001 4.66003 32.2901C4.65003 32.2401 4.63005 32.1901 4.62005 32.1401C4.13005 30.4301 5.06005 28.6401 6.75005 28.0701L33.7501 18.9401C34.1001 18.8201 34.4601 18.7601 34.8201 18.7601C36.2601 18.7501 37.53 19.6301 37.97 20.9501L38.0101 21.0901C38.2701 22.0001 38.12 23.0201 37.6 23.8301C37.21 24.4301 36.0001 24.9601 36.0001 24.9601L8.89007 34.2301C8.52007 34.3501 8.14005 34.4201 7.75005 34.4201Z" fill="#9E9E9E"/>
<path d="M30.22 34.4801C28.79 34.5001 27.5 33.5801 27.05 32.2201L18.04 5.46017L17.99 5.31015C17.5 3.60015 18.4401 1.82015 20.1301 1.25015C20.4601 1.14015 20.81 1.08017 21.16 1.08017C21.68 1.07017 22.18 1.19014 22.66 1.43014C23.45 1.82014 24.0501 2.50018 24.3301 3.34018L33.3401 30.1001L33.3701 30.1902C33.8701 31.9602 32.9401 33.7401 31.2501 34.3101C30.9201 34.4201 30.57 34.4801 30.22 34.4801Z" fill="#9E9E9E"/>
<path d="M16.8301 38.9901C15.3901 39.0001 14.1101 38.0901 13.6501 36.7301L4.64008 9.96016C4.36008 9.13016 4.42007 8.22013 4.81007 7.43013C5.21007 6.64013 5.89005 6.04015 6.73005 5.76015C7.06005 5.65015 7.41008 5.59016 7.76008 5.59016C9.20008 5.57016 10.4801 6.49011 10.9401 7.85011L19.9401 34.6101C20.2301 35.4501 20.1701 36.3602 19.7701 37.1502C19.3801 37.9402 18.6901 38.5401 17.8601 38.8201C17.5201 38.9301 17.1801 38.9901 16.8301 38.9901Z" fill="#9E9E9E"/>
<path d="M25.78 28.4501L32.06 26.3101L30.01 20.2101L23.72 22.3301L25.78 28.4501Z" fill="#9E9E9E"/>
<path d="M12.41 33.03L18.6901 30.88L16.6201 24.73L10.3301 26.86L12.41 33.03Z" fill="#9E9E9E"/>
<path d="M21.31 15.17L27.59 13.02L25.56 6.98999L19.27 9.09998L21.31 15.17Z" fill="#9E9E9E"/>
<path d="M7.93011 19.73L14.2201 17.59L12.1601 11.48L5.87012 13.59L7.93011 19.73Z" fill="#9E9E9E"/>
</svg>
