<svg width="172" height="27" viewBox="0 0 172 27" fill="none" xmlns="http://www.w3.org/2000/svg">
<g opacity="0.631">
<path opacity="0.631" fill-rule="evenodd" clip-rule="evenodd" d="M164.25 26.3999L162.89 21.7299H154.59L153.24 26.3999H145.83L153.47 1.1499H164.01L171.66 26.3999H164.25ZM161.29 16.1099L158.76 7.38989H158.72L156.2 16.1099H161.29Z" fill="#9E9E9E"/>
<path opacity="0.631" fill-rule="evenodd" clip-rule="evenodd" d="M48.8201 8.90991C48.9501 10.5399 48.9701 12.22 48.9701 13.77C48.9701 15.33 48.9501 17.01 48.8201 18.64C48.3001 25.51 44.6201 26.8499 37.0101 26.8499C29.4001 26.8499 25.7201 25.51 25.2001 18.64C25.0701 17.01 25.05 15.33 25.05 13.77C25.05 12.22 25.0701 10.5399 25.2001 8.90991C25.7201 2.03991 29.4001 0.699951 37.0101 0.699951C44.6201 0.699951 48.3001 2.03991 48.8201 8.90991ZM41.8 13.77C41.8 12.39 41.7601 11.57 41.7301 10.96C41.5401 7.05996 40.0001 6.60992 37.0101 6.60992C34.0201 6.60992 32.4801 7.05996 32.2901 10.96C32.2601 11.57 32.2201 12.39 32.2201 13.77C32.2201 15.17 32.2601 15.99 32.2901 16.59C32.4801 20.49 34.0201 20.95 37.0101 20.95C40.0001 20.95 41.5401 20.49 41.7301 16.59C41.7601 15.99 41.8 15.17 41.8 13.77Z" fill="#9E9E9E"/>
<path opacity="0.631" d="M0 7.45996H7.55V26.4099H15.1V7.45996H22.64V1.16992H0V7.45996Z" fill="#9E9E9E"/>
<path opacity="0.631" d="M108.67 1.1499H115.84V26.3999H108.67V1.1499Z" fill="#9E9E9E"/>
<path opacity="0.631" d="M95.29 10.3699H87.01V1.1499H79.89V26.3999H87.01V16.6599H95.29V26.3999H102.41V1.1499H95.29V10.3699Z" fill="#9E9E9E"/>
<path opacity="0.631" fill-rule="evenodd" clip-rule="evenodd" d="M144 19.5999C144 23.7199 141.91 26.3999 135.69 26.3999H122.19V1.1499H135.05C140.02 1.1499 143.51 2.20989 143.51 7.75989C143.51 10.4999 142.58 12.3899 139.4 13.1999V13.2099C139.4 13.1999 139.4 13.1999 139.4 13.1999C143.34 14.1999 144 16.7299 144 19.5999ZM129.31 11.0499H134.25C135.55 11.0499 136.34 10.2699 136.34 9.00989C136.34 7.53989 135.54 6.92987 134.25 6.92987H129.31V11.0499ZM136.66 18.3299C136.66 16.8999 136.25 16.0299 134.25 16.0299H129.31V20.6299H134.25C135.88 20.6299 136.66 19.7499 136.66 18.3299Z" fill="#9E9E9E"/>
<path opacity="0.631" d="M72.02 12.1299C70.24 11.0899 65.26 10.93 62.73 10.77C60.89 10.65 60.18 9.96992 60.18 8.34992C60.18 6.21992 62.21 6.13996 63.96 6.13996C65.41 6.13996 66.41 6.26997 67.11 6.89997C67.38 7.16997 67.72 7.58996 67.73 9.07996H74.51C74.51 6.15996 74.41 3.01995 71.26 1.56995C68.76 0.409951 59.44 0.409951 57.07 1.56995C54.77 2.68995 53.17 4.28993 53.17 8.85993C53.17 11.5499 53.89 13.5299 55.26 14.5499C57.27 16.0499 59.23 16.1999 64.64 16.4899C66.82 16.6099 68.01 17.0299 68.01 18.9099C68.01 21.2899 65.89 21.2899 63.96 21.2899C61.95 21.2899 61.35 21.1199 60.67 20.6099C60.08 20.1599 59.92 19.3399 59.92 18.1199H53.12C53.12 21.5899 53.19 24.4499 56.47 25.8799C59.41 27.16 68.43 27.1599 71.13 25.9699C73.47 24.9399 75.15 23.5599 75.15 18.8499C75.15 15.5999 74.51 13.6099 72.02 12.1299Z" fill="#9E9E9E"/>
</g>
</svg>
